<svg width="26" height="26" viewBox="0 0 26 26" fill="none" xmlns="http://www.w3.org/2000/svg">
<path d="M13.7365 13.117V25.9998H15.2498V12.5626L13.7365 13.117Z" fill="#979797"/>
<path d="M4.59589 16.4437V23.7148C4.59589 24.9748 5.62096 25.9999 6.88104 25.9999H12.2029V13.6715L4.59589 16.4437Z" fill="#979797"/>
<path d="M16.7834 12.1875V26H22.1154C23.3755 26 24.3904 24.9749 24.3904 23.7148V12.1875H16.7834Z" fill="#979797"/>
<path d="M23.1545 4.0155C22.7255 2.83859 21.4293 2.21602 20.2259 2.64974L13.7183 5.01823L15.9334 10.6965L24.4577 7.59426L23.1545 4.0155Z" fill="#979797"/>
<path d="M9.42391 6.58081L3.04711 8.90167C1.86187 9.33356 1.24798 10.641 1.6814 11.8303L2.98389 15.409L11.6392 12.259L9.42391 6.58081Z" fill="#979797"/>
<path d="M12.2765 5.54294L10.8448 6.064L13.0807 11.7347L14.5125 11.2136L12.2765 5.54294Z" fill="#979797"/>
<path d="M16.6048 0.599502C15.724 -0.044709 14.5956 -0.17933 13.5899 0.242408C12.5835 0.662674 11.8857 1.55754 11.7235 2.63619L11.4673 4.21614L13.0971 3.62292L13.2306 2.86231C13.3124 2.31484 13.6658 1.86106 14.1768 1.64834C14.6702 1.4409 15.2449 1.49315 15.7062 1.82983C15.9784 2.0291 16.1605 2.16971 16.26 2.47171L17.6814 1.95435C17.479 1.37219 17.1221 0.977924 16.6048 0.599502Z" fill="#979797"/>
<path d="M9.61314 3.27396C8.79571 2.55089 7.68437 2.31364 6.64442 2.63945C5.603 2.96526 4.82569 3.79168 4.56533 4.85097C4.41238 5.4733 4.47652 6.10497 4.69569 6.68108L6.11665 6.16382C5.99863 5.86832 5.96339 5.54332 6.04413 5.21548C6.17652 4.67766 6.57079 4.25886 7.09891 4.09372C7.60946 3.93249 8.17781 4.03832 8.60447 4.41507L9.28002 5.01251L10.909 4.41954L9.61314 3.27396Z" fill="#979797"/>
</svg>
