<svg width="27" height="26" viewBox="0 0 27 26" fill="none" xmlns="http://www.w3.org/2000/svg">
<path d="M13.4492 0.8125C6.30887 0.8125 0.5 5.93775 0.5 12.2383C0.5 14.8998 1.5533 17.4788 3.47025 19.523C3.84963 21.0873 3.38915 22.7446 2.24657 23.8872C1.76882 24.365 2.10667 25.1875 2.78516 25.1875C4.95575 25.1875 7.04824 24.3373 8.60291 22.8376C10.1412 23.3866 11.7688 23.6641 13.4492 23.6641C20.5896 23.6641 26.5 18.5388 26.5 12.2383C26.5 5.93775 20.5896 0.8125 13.4492 0.8125ZM7.45703 14.5234C6.19695 14.5234 5.17188 13.4984 5.17188 12.2383C5.17188 10.9782 6.19695 9.95312 7.45703 9.95312C8.71712 9.95312 9.74219 10.9782 9.74219 12.2383C9.74219 13.4984 8.71712 14.5234 7.45703 14.5234ZM13.5508 14.5234C12.2907 14.5234 11.2656 13.4984 11.2656 12.2383C11.2656 10.9782 12.2907 9.95312 13.5508 9.95312C14.8109 9.95312 15.8359 10.9782 15.8359 12.2383C15.8359 13.4984 14.8109 14.5234 13.5508 14.5234ZM19.6445 14.5234C18.3844 14.5234 17.3594 13.4984 17.3594 12.2383C17.3594 10.9782 18.3844 9.95312 19.6445 9.95312C20.9046 9.95312 21.9297 10.9782 21.9297 12.2383C21.9297 13.4984 20.9046 14.5234 19.6445 14.5234Z" fill="#979797"/>
</svg>
