<svg width="28" height="28" viewBox="0 0 28 28" fill="none" xmlns="http://www.w3.org/2000/svg">
<path d="M7.83091 12.4805C7.39216 12.4805 7.0218 12.9551 7.0218 13.5161C7.0218 14.0777 7.39212 14.5522 7.83091 14.5522C8.26966 14.5522 8.64044 14.0777 8.64044 13.5161C8.64044 12.9551 8.26966 12.4805 7.83091 12.4805Z" fill="#00A3FF"/>
<path d="M14.9261 17.9575C14.4873 17.9575 14.117 18.432 14.117 18.9935C14.117 19.5546 14.4873 20.0291 14.9261 20.0291C15.3648 20.0291 15.7357 19.5546 15.7357 18.9935C15.7357 18.432 15.3648 17.9575 14.9261 17.9575Z" fill="#00A3FF"/>
<path d="M19.5243 9.56718C12.3954 3.12626 12.76 3.37228 12.1932 3.15609C11.3878 2.84237 10.4294 3.00641 9.76737 3.60439L3.1677 9.56718C2.42562 10.2373 2 11.191 2 12.1843V22.7433C2 23.9874 3.02567 25 4.28614 25H18.4053C19.6658 25 20.6915 23.9874 20.6915 22.7433V12.1843C20.6915 11.191 20.2658 10.2373 19.5243 9.56718ZM10.6655 7.30357C10.7082 6.90231 11.083 6.61736 11.5023 6.69464C11.9034 6.77675 12.1293 7.15463 12.0545 7.50655C11.975 7.88149 11.6158 8.12032 11.2276 8.04875C10.8568 7.97281 10.6305 7.64206 10.6655 7.30357ZM5.61556 13.5163C5.61556 12.1838 6.60936 11.0999 7.83097 11.0999C9.05305 11.0999 10.0468 12.1838 10.0468 13.5163C10.0468 14.8488 9.053 15.9332 7.83097 15.9332C6.60936 15.9332 5.61556 14.8488 5.61556 13.5163ZM9.64648 20.8649C9.14961 20.8649 8.80283 20.3647 8.99867 19.9071L12.4216 11.8966C12.572 11.545 12.9841 11.3793 13.3422 11.527C13.7003 11.6743 13.8686 12.0793 13.7186 12.431L10.2952 20.4415C10.1823 20.7057 9.92164 20.8649 9.64648 20.8649ZM14.9262 21.4099C13.7045 21.4099 12.7108 20.326 12.7108 18.9935C12.7108 17.661 13.7046 16.5766 14.9262 16.5766C16.1478 16.5766 17.142 17.661 17.142 18.9935C17.142 20.326 16.1478 21.4099 14.9262 21.4099Z" fill="#00A3FF"/>
<path d="M25.8234 17.1496C23.5341 10.6058 22.2625 6.96746 22.2444 6.92613C21.8465 6.02124 21.073 5.31748 20.1233 4.99576C20.0688 4.97758 20.3904 5.05426 15.2908 3.86626L20.4758 8.55087C21.5066 9.48154 22.0977 10.8057 22.0977 12.1842V21.1319L24.6272 20.0686C25.7714 19.5826 26.3034 18.2777 25.8234 17.1496Z" fill="#00A3FF"/>
</svg>
