<svg width="9" height="15" viewBox="0 0 9 15" fill="none" xmlns="http://www.w3.org/2000/svg">
<path d="M0 4.07143H2.07924C2.16964 2.72449 3.06362 1.87755 4.44978 1.87755C5.82589 1.87755 6.71987 2.72449 6.71987 3.87755C6.71987 4.92857 6.28795 5.52041 5.07254 6.26531C3.69643 7.10204 3.08371 8.02041 3.13393 9.45918L3.14397 10.2755H5.22321V9.65306C5.22321 8.60204 5.59487 8.06122 6.89062 7.28571C8.21652 6.47959 9 5.36735 9 3.78571C9 1.60204 7.21205 0 4.56027 0C1.64732 0 0.0904018 1.7551 0 4.07143ZM4.19866 15C4.95201 15 5.52455 14.4286 5.52455 13.6837C5.52455 12.9388 4.95201 12.3673 4.19866 12.3673C3.4654 12.3673 2.88281 12.9388 2.88281 13.6837C2.88281 14.4286 3.4654 15 4.19866 15Z" fill="url(#paint0_linear_1_684)"/>
<defs>
<linearGradient id="paint0_linear_1_684" x1="4.16183" y1="25.4446" x2="4.16183" y2="-5.18027" gradientUnits="userSpaceOnUse">
<stop stop-color="#6E24CC"/>
<stop offset="1" stop-color="#02A1FA"/>
</linearGradient>
</defs>
</svg>
