<svg width="27" height="28" viewBox="0 0 27 28" fill="none" xmlns="http://www.w3.org/2000/svg">
<path fill-rule="evenodd" clip-rule="evenodd" d="M14.1493 1.17768C13.7753 0.858336 13.2247 0.858335 12.8507 1.17768L0.851446 11.4232C0.467868 11.7507 0.388238 12.3126 0.665715 12.7338L1.66007 14.2432C1.99094 14.7454 2.6871 14.8441 3.14449 14.4536L3.86127 13.8415V26.0619C3.86127 26.6141 4.30898 27.0619 4.86127 27.0619H9.87179C10.4241 27.0619 10.8718 26.6141 10.8718 26.0619V19.083C10.8718 18.5307 11.3195 18.083 11.8718 18.083H15.1297C15.682 18.083 16.1297 18.5307 16.1297 19.083V26.0619C16.1297 26.6141 16.5774 27.0619 17.1297 27.0619H22.1402C22.6925 27.0619 23.1402 26.6141 23.1402 26.0619V13.8428L23.8555 14.4536C24.3129 14.8441 25.0091 14.7454 25.3399 14.2432L26.3343 12.7338C26.6118 12.3126 26.5321 11.7507 26.1486 11.4232L14.1493 1.17768Z" fill="#00A3FF"/>
</svg>
