<svg width="28" height="28" viewBox="0 0 28 28" fill="none" xmlns="http://www.w3.org/2000/svg">
<path fill-rule="evenodd" clip-rule="evenodd" d="M2 12.6802C2 11.0234 3.34315 9.68024 5 9.68024H20.9999C22.6568 9.68024 23.9999 11.0234 23.9999 12.6802V14.4798H18.3599C16.5042 14.4798 14.9999 15.9841 14.9999 17.8398C14.9999 19.6954 16.5042 21.1997 18.3599 21.1997H23.9999V23.0001C23.9999 24.6569 22.6568 26.0001 20.9999 26.0001H5C3.34314 26.0001 2 24.6569 2 23.0001V12.6802ZM9.51976 15.9292L7.95234 13.4289L6.38492 15.9292L3.42351 16.5876L5.4162 18.7913L5.15337 21.6986L7.95234 20.5602L10.7513 21.6986L10.4885 18.7913L12.4812 16.5876L9.51976 15.9292Z" fill="#00A3FF"/>
<path d="M17.3592 4.62807L12.0613 8.27038C11.7376 8.49293 11.8951 9 12.2879 9H20.3262C20.6298 9 20.8227 8.67501 20.6773 8.40846L18.8036 4.97326C18.5197 4.45273 17.8478 4.29216 17.3592 4.62807Z" fill="#00A3FF"/>
<path d="M6.96568 8.99993H7.73803C7.90977 8.99993 8.07861 8.9557 8.22829 8.8715L15.4942 4.78444C15.7383 4.64711 15.7693 4.30785 15.5542 4.12852L13.7015 2.58463C13.3042 2.25352 12.7199 2.28002 12.3542 2.64574L6.68284 8.31709C6.43086 8.56907 6.60932 8.99993 6.96568 8.99993Z" fill="#00A3FF"/>
<path fill-rule="evenodd" clip-rule="evenodd" d="M18.4 15.4397C17.0745 15.4397 16 16.5142 16 17.8396C16 19.1651 17.0745 20.2396 18.4 20.2396H25C25.5523 20.2396 26 19.7919 26 19.2396V16.4397C26 15.8874 25.5523 15.4397 25 15.4397H18.4ZM18.4999 18.3201C18.7761 18.3201 18.9999 18.1052 18.9999 17.8401C18.9999 17.575 18.7761 17.3601 18.4999 17.3601C18.2238 17.3601 17.9999 17.575 17.9999 17.8401C17.9999 18.1052 18.2238 18.3201 18.4999 18.3201Z" fill="#00A3FF"/>
</svg>
