<svg width="33" height="33" viewBox="0 0 33 33" fill="none" xmlns="http://www.w3.org/2000/svg">
<path d="M26.348 20.913C24.7604 19.635 23.85 17.7669 23.85 15.7879V13C23.85 9.48106 21.1053 6.56805 17.55 6.08007V4.99994C17.55 4.44696 17.0796 4 16.5001 4C15.9204 4 15.45 4.44696 15.45 4.99994V6.08007C11.8937 6.56805 9.14999 9.48106 9.14999 13V15.7879C9.14999 17.7669 8.23964 19.635 6.64273 20.9209C6.23417 21.254 6 21.7379 6 22.2499C6 23.215 6.82422 24 7.83762 24H25.1626C26.1758 24 27 23.215 27 22.2499C27 21.7379 26.7658 21.254 26.348 20.913Z" fill="#D1EAFF"/>
<path d="M16.5 29C18.2251 29 19.6684 27.7089 20 26H13C13.3314 27.7089 14.7747 29 16.5 29Z" fill="#D1EAFF"/>
</svg>
