<svg width="24" height="25" viewBox="0 0 24 25" fill="none" xmlns="http://www.w3.org/2000/svg">
<path fill-rule="evenodd" clip-rule="evenodd" d="M3 8C1.34315 8 0 9.34315 0 11V22C0 23.6569 1.34315 25 3 25H19C20.6569 25 22 23.6569 22 22V20H16.5C14.567 20 13 18.433 13 16.5C13 14.567 14.567 13 16.5 13H22V11C22 9.34315 20.6569 8 19 8H3Z" fill="#979797"/>
<path d="M15.692 2.95453L9.8309 6.25137C9.47214 6.45317 9.61538 7 10.027 7H18.7526C19.0721 7 19.2626 6.64394 19.0854 6.37812L17.0143 3.2714C16.7242 2.83625 16.1478 2.69813 15.692 2.95453Z" fill="#979797"/>
<path d="M4.96569 7H5.73805C5.90979 7 6.07863 6.95577 6.22831 6.87158L13.4943 2.78446C13.7384 2.64713 13.7694 2.30787 13.5543 2.12855L11.7016 0.584626C11.3042 0.25352 10.72 0.280022 10.3543 0.645739L4.68284 6.31716C4.43086 6.56914 4.60932 7 4.96569 7Z" fill="#979797"/>
<path fill-rule="evenodd" clip-rule="evenodd" d="M16.5 14C15.1193 14 14 15.1193 14 16.5C14 17.8807 15.1193 19 16.5 19H23C23.5523 19 24 18.5523 24 18V15C24 14.4477 23.5523 14 23 14H16.5ZM16.5 17C16.7761 17 17 16.7761 17 16.5C17 16.2239 16.7761 16 16.5 16C16.2239 16 16 16.2239 16 16.5C16 16.7761 16.2239 17 16.5 17Z" fill="#979797"/>
</svg>
