<svg width="28" height="28" viewBox="0 0 28 28" fill="none" xmlns="http://www.w3.org/2000/svg">
<path d="M6.54712 10.6107H10.796V6.48602H6.54712V10.6107ZM8.67153 7.87856C9.04147 7.87856 9.34135 8.17844 9.34135 8.54838C9.34135 8.91831 9.04147 9.21819 8.67153 9.21819C8.3016 9.21819 8.00172 8.91831 8.00172 8.54838C8.00172 8.17844 8.3016 7.87856 8.67153 7.87856Z" fill="#00A3FF"/>
<path d="M6.54712 21.3823H10.796V17.2576H6.54712V21.3823ZM8.67153 18.6501C9.04147 18.6501 9.34135 18.95 9.34135 19.32C9.34135 19.6899 9.04147 19.9898 8.67153 19.9898C8.3016 19.9898 8.00172 19.6899 8.00172 19.32C8.00172 18.95 8.3016 18.6501 8.67153 18.6501Z" fill="#00A3FF"/>
<path d="M24.9988 4.15176C24.9988 3.51566 24.4832 3 23.8471 3H4.14877C3.51267 3 2.99701 3.51566 2.99701 4.15176L3.00113 23.8475C3.00113 24.4836 3.5168 24.9992 4.15289 24.9992H23.8512C24.4873 24.9992 25.0029 24.4836 25.0029 23.8475L24.9988 4.15176ZM15.8989 5.84135C15.8989 5.48554 16.1874 5.19709 16.5432 5.19709H22.0806C22.4364 5.19709 22.7248 5.48554 22.7248 5.84135V11.2546C22.7248 11.6104 22.4364 11.8989 22.0806 11.8989H16.5432C16.1874 11.8989 15.8989 11.6104 15.8989 11.2546V5.84135ZM13.3516 5.84135C13.3516 5.48554 13.6401 5.19709 13.9959 5.19709C14.3517 5.19709 14.6401 5.48554 14.6401 5.84135V11.3047C14.6401 11.6605 14.3517 11.949 13.9959 11.949C13.6401 11.949 13.3516 11.6605 13.3516 11.3047V5.84135ZM12.0845 22.0259C12.0845 22.3817 11.7961 22.6701 11.4403 22.6701H5.90287C5.54706 22.6701 5.25861 22.3817 5.25861 22.0259V16.6126C5.25861 16.2568 5.54706 15.9683 5.90287 15.9683H11.4403C11.7961 15.9683 12.0845 16.2568 12.0845 16.6126V22.0259ZM11.4403 14.5729H5.90287C5.54706 14.5729 5.25861 14.2845 5.25861 13.9287C5.25861 13.5729 5.54706 13.2844 5.90287 13.2844H11.4403C11.7961 13.2844 12.0845 13.5729 12.0845 13.9287C12.0845 14.2845 11.7961 14.5729 11.4403 14.5729ZM12.0845 11.2546C12.0845 11.6104 11.7961 11.8988 11.4403 11.8988H5.90287C5.54706 11.8988 5.25861 11.6104 5.25861 11.2546V5.84135C5.25861 5.48554 5.54706 5.19709 5.90287 5.19709H11.4403C11.7961 5.19709 12.0845 5.48554 12.0845 5.84135V11.2546ZM14.6401 14.5729V21.3816H16.911C17.2668 21.3816 17.5552 21.6701 17.5552 22.0259C17.5552 22.3817 17.2668 22.6701 16.911 22.6701H13.9959C13.6401 22.6701 13.3516 22.3817 13.3516 22.0259V13.9287C13.3516 13.5729 13.6401 13.2844 13.9959 13.2844H22.05C22.4058 13.2844 22.6942 13.5729 22.6942 13.9287C22.6942 14.2845 22.4058 14.5729 22.05 14.5729H20.3361V15.6828C20.3361 16.0386 20.0477 16.3271 19.6919 16.3271C19.3361 16.3271 19.0476 16.0386 19.0476 15.6828V14.5729H17.5008V17.4218H18.8805C19.2363 17.4218 19.5247 17.7103 19.5247 18.0661C19.5247 18.4219 19.2363 18.7103 18.8805 18.7103H16.8566C16.5008 18.7103 16.2123 18.4219 16.2123 18.0661V14.5729H14.6401ZM22.7248 22.0259C22.7248 22.3817 22.4364 22.6701 22.0806 22.6701C22.0802 22.6701 22.0798 22.6701 22.0794 22.6701C22.079 22.6701 22.0786 22.6701 22.0782 22.6701H19.7157C19.3599 22.6701 19.0714 22.3817 19.0714 22.0259C19.0714 21.6701 19.3599 21.3816 19.7157 21.3816H21.4363V19.0603C21.4363 18.7045 21.7248 18.4161 22.0806 18.4161C22.4364 18.4161 22.7248 18.7045 22.7248 19.0603V22.0259ZM22.0806 17.17C21.7107 17.17 21.4108 16.8702 21.4108 16.5002C21.4108 16.1303 21.7107 15.8304 22.0806 15.8304C22.4505 15.8304 22.7504 16.1303 22.7504 16.5002C22.7504 16.8702 22.4505 17.17 22.0806 17.17Z" fill="#00A3FF"/>
<path d="M21.4364 6.48602H17.1875V10.6108H21.4364V6.48602ZM19.3119 9.21819C18.942 9.21819 18.6421 8.91831 18.6421 8.54838C18.6421 8.17844 18.942 7.87856 19.3119 7.87856C19.6819 7.87856 19.9817 8.17844 19.9817 8.54838C19.9817 8.91831 19.6819 9.21819 19.3119 9.21819Z" fill="#00A3FF"/>
</svg>
