<svg width="16" height="16" viewBox="0 0 16 16" fill="none" xmlns="http://www.w3.org/2000/svg">
<path fill-rule="evenodd" clip-rule="evenodd" d="M1.86044 6.41926C1.86044 3.90836 3.88243 1.87286 6.37668 1.87286C8.87093 1.87286 10.8929 3.90836 10.8929 6.41926C10.8929 8.93017 8.87093 10.9657 6.37668 10.9657C3.88243 10.9657 1.86044 8.93017 1.86044 6.41926ZM6.37668 0C2.85494 0 0 2.874 0 6.41926C0 9.96452 2.85494 12.8385 6.37668 12.8385C7.82923 12.8385 9.16834 12.3496 10.2405 11.5263L14.6845 16L16 14.6757L11.5405 10.1864C12.3034 9.12832 12.7534 7.82669 12.7534 6.41926C12.7534 2.874 9.89843 0 6.37668 0Z" fill="#D1EAFF"/>
</svg>
