<svg width="22" height="24" viewBox="0 0 22 24" fill="none" xmlns="http://www.w3.org/2000/svg">
<path d="M6.99449 4.86748L7.43583 7.07419H15.2681L14.3217 3.28874C14.2671 3.07028 14.0491 2.93443 13.8289 2.98161L7.31657 4.37712C7.09317 4.42499 6.94968 4.64345 6.99449 4.86748Z" fill="#979797"/>
<path fill-rule="evenodd" clip-rule="evenodd" d="M12.2025 2.47582L12.546 1.21639C12.6064 0.994852 12.8406 0.869551 13.0584 0.942168L18.5717 2.77992C18.77 2.84601 18.8839 3.05363 18.8332 3.2564L17.9607 6.74653C17.9134 6.93578 17.7365 7.0633 17.542 7.04834L16.0949 6.93702L15.1322 3.08623C14.9683 2.43082 14.3144 2.02327 13.6539 2.16482L12.2025 2.47582ZM11.2068 6.23886C11.2007 6.18908 11.204 6.13711 11.2182 6.08515L11.7076 4.29069L13.6091 3.88322L14.198 6.23886H11.2068Z" fill="#979797"/>
<path fill-rule="evenodd" clip-rule="evenodd" d="M6.52426 6.77661L6.17519 5.03128C6.04077 4.35919 6.47125 3.70379 7.14144 3.56018L11.2406 2.6818L11.0183 0.371908C11.0052 0.260958 10.9485 0.159634 10.8607 0.0905209C10.7728 0.0214082 10.6618 -0.0101862 10.5504 0.00289586L3.50461 0.835704C3.2737 0.863103 3.10857 1.07242 3.13584 1.30357L3.77575 6.71818C3.80118 6.93256 3.98297 7.09016 4.19364 7.09016C5.00674 6.77315 5.78225 6.71973 6.52426 6.77661ZM11.4017 4.35608L7.89443 5.10763L8.12065 6.23871H11.5828L11.4017 4.35608Z" fill="#979797"/>
<path d="M6.99101 4.85016L7.43578 7.07401H15.268L14.3175 3.27195C14.2652 3.06274 14.0565 2.93266 13.8456 2.97784L7.29944 4.3806C7.08551 4.42644 6.94811 4.63564 6.99101 4.85016Z" fill="#979797"/>
<path fill-rule="evenodd" clip-rule="evenodd" d="M19.7994 6.30249C20.0238 6.30249 20.2086 6.47823 20.2202 6.70211L21.0628 23.1312C21.0686 23.2466 21.0269 23.3593 20.9475 23.4429C20.8675 23.5266 20.7571 23.574 20.6417 23.574H0.421279C0.305762 23.574 0.195428 23.5265 0.115825 23.4429C0.0363455 23.3593 -0.00536906 23.2465 0.000554888 23.1312L0.843113 6.70211C0.854715 6.47811 1.03959 6.30249 1.26396 6.30249H19.7994ZM12.4272 9.25078C12.4272 8.55385 12.994 7.98701 13.6909 7.98701C14.3879 7.98701 14.9547 8.55385 14.9547 9.25078C14.9547 9.80008 14.6026 10.2686 14.1121 10.4424V11.9888C14.1121 13.9632 12.5059 15.5694 10.5315 15.5694C8.55709 15.5694 6.95083 13.9632 6.95083 11.9888V10.4424C6.46044 10.2685 6.10833 9.80006 6.10833 9.25078C6.10833 8.55385 6.67518 7.98701 7.37211 7.98701C8.06904 7.98701 8.63589 8.55385 8.63589 9.25078C8.63589 9.8001 8.28372 10.2686 7.79327 10.4424V11.9887C7.79327 13.4985 9.02162 14.7269 10.5315 14.7269C12.0414 14.7269 13.2697 13.4984 13.2697 11.9887V10.4424C12.7793 10.2686 12.4272 9.80008 12.4272 9.25078ZM14.0558 9.46129C13.9829 9.33537 13.8468 9.25057 13.6909 9.25057H13.6585C13.5145 9.25057 13.3872 9.32296 13.3113 9.43332C13.2846 9.3781 13.2697 9.31622 13.2697 9.2509C13.2697 9.01864 13.4587 8.82969 13.6909 8.82969C13.9232 8.82969 14.1122 9.01864 14.1122 9.2509C14.1122 9.32748 14.0916 9.39935 14.0558 9.46129ZM7.73689 9.46135C7.77277 9.3994 7.79333 9.32751 7.79333 9.2509C7.79333 9.01864 7.60438 8.82969 7.37211 8.82969C7.13984 8.82969 6.95089 9.01864 6.95089 9.2509C6.95089 9.32747 6.97142 9.39932 7.00727 9.46125C7.08014 9.33541 7.21626 9.25069 7.37205 9.25069C7.52788 9.25069 7.66404 9.33545 7.73689 9.46135Z" fill="#979797"/>
</svg>
